<?xml version="1.0" encoding="utf-8"?>
<!-- Generator: Adobe Illustrator 17.0.0, SVG Export Plug-In . SVG Version: 6.00 Build 0)  -->
<!DOCTYPE svg PUBLIC "-//W3C//DTD SVG 1.1//EN" "http://www.w3.org/Graphics/SVG/1.1/DTD/svg11.dtd">
<svg version="1.1" id="Layer_1" xmlns="http://www.w3.org/2000/svg" xmlns:xlink="http://www.w3.org/1999/xlink" x="0px" y="0px"
	 width="1000px" height="1000px" viewBox="0 0 1000 1000" enable-background="new 0 0 1000 1000" xml:space="preserve">
<path d="M239.959,685.556c21.485-84.106-16.833-153.473,5.706-180.66c75.192-90.697,95.383-197.994,178.014-259.455
	c49.836-37.067,99.045-23.142,186.512-48.145c8.76-2.504,81.275-45.751,172.708-84.251c57.683-24.289,116.193-46.343,116.193-46.343
	s-97.385,24.749-129.372,43.727c-29.338,17.406,9.093,34.903-26.813,43.932c-95.923,24.12-164.834,10.13-310.046,124.508
	c-3.547,2.793-6.969,5.559-10.37,8.281c-244.808,195.942-118.803,207.217-228.561,522.7
	C193.928,809.85,218.473,769.662,239.959,685.556c-21.485,84.106-47.555,123.764-47.555,123.764
	c109.759-315.484-20.241-333.124,224.567-529.066c3.401-2.722,6.924-5.471,10.471-8.265
	c145.212-114.378,217.878-100.128,313.8-124.248c35.906-9.029-4.175-25.493,25.163-42.9
	c31.987-18.978,132.687-32.418,132.687-32.418s-56.562,20.958-114.245,45.247c-91.434,38.5-164.816,80.898-173.576,83.403
	c-87.467,25.003-136.068,9.571-185.903,46.638c-82.631,61.461-103.713,167.149-178.904,257.846
	C223.923,532.744,261.444,601.45,239.959,685.556"/>
<path d="M900.386,142.756c-34.168-11.379-81.104-7.991-116.145-10.403c-49.667-3.418-99.02-11.16-148.765-13.136
	c-30.212-1.2-80.409,43.72-80.409,43.72s38.715,14.214,0.369,88.451c-9.649,18.679-105.614,46.869-105.614,46.869l105.374,22.25
	L262.75,372.675c0,0,225.384-14.478,219.517,21.783c-3.054,18.878-167.926,57.764-181.486,83.546
	c-7.799,14.828,25.43,39.076,18.342,54.929c-5.69,12.729-29.634-23.96-35.556-11.076c-19.141,41.638-153.138-98.419-168.977-53.845
	c-30.264,85.166,62.027,348.354,51.871,349.797c-45.715,6.496,55.558-203.139,193.34-329.947c2.701-2.486,5.54-4.987,8.364-7.348
	c98.204-82.101,269.519-89.256,284.51-83.188c12.724,5.15-87.203,41.686-111.128,54.638c-0.986,0.534,31.75,23.388,45.551,36.676
	c0.563,0.542-15.446,8.988-21.862,12.392c-17.143,9.096-67.749,30.68-83.259,55.336c-4.867,7.736,4.014,17.537,7.154,22.835
	c0.87,1.468-135.145,25.107-192.947,68.459c-39.895,29.922-62.945,73.32-74.246,121.346c-0.487,2.07-10.089,53.603-5.46,58.232
	c-4.628-4.629,4.679-56.231,5.166-58.301c11.301-48.026,34.017-92.193,73.912-122.115c57.803-43.352,192.64-65.083,191.77-66.551
	c-3.141-5.298-12.106-17.359-7.239-25.095c15.51-24.656,66.716-47.483,83.859-56.579c6.415-3.404,21.72-7.345,21.157-7.887
	c-13.801-13.287-46.057-41.014-45.07-41.548c23.925-12.952,123.932-43.14,111.208-48.291
	c-14.991-6.068-181.427,1.658-279.631,83.759c-2.824,2.361-5.487,4.676-8.188,7.162
	c-137.782,126.808-243.304,328.08-197.589,321.585c10.156-1.443-84.994-261.44-54.73-346.606
	c15.84-44.574,150.344,95.352,169.485,53.714c5.923-12.884,29.937,23.874,35.627,11.145c7.087-15.853-25.936-40.223-18.138-55.051
	c13.56-25.782,178.552-63.663,181.607-82.542c5.867-36.261-217.296-23.458-217.296-23.458l292.5-48.627l-105.067-22.452
	c0,0,95.083-29.892,104.732-48.571c38.346-74.237,0.513-87.214,0.513-87.214s50.22-46.279,80.432-45.079
	c49.745,1.976,99.093,10.043,148.76,13.461C819.3,134.511,866.218,131.376,900.386,142.756"/>
<path d="M456.329,604.758c-53.831,0-104.764,3.433-159.883,6.21c-20.066,1.011-58.401,5.994-73.29,15.678
	c-3.28,2.133,33.149,16.362,47.291,22.198c19.018,7.849,39.129,12.418,58.573,19.307c1.055,0.374-62.877,21.341-96.729,34.35
	c-5.511,2.118-8.859,3.388-12.321,5.721c-1.046,0.705,66.339,13.13,81.392,19.156c3.941,1.578,15.425,14.206,11.587,15.99
	c-27.248,12.662-60.648,8.777-89.471,18.406c-3.243,1.083,4.399-0.7,34.906,21.681c3.687,2.705-24.408,18.455-30.296,21.77
	c-10.023,5.644,24.216,16.493,15.689,18.768c-26.93,7.184-71.188,8.665-92.449,22.412c-5.287,3.418,7.069,9.396,5.53,12.85
	c-0.919,2.063-3.575,3.426-5.365,4.916c-13.068,10.879-18.082,16.185-18.082,33.24c0-17.055,4.227-23.306,17.296-34.185
	c1.79-1.49,3.912-2.496,4.831-4.559c1.539-3.455-10.551-10.477-5.265-13.895c21.262-13.747,65.313-18.326,92.243-25.51
	c8.527-2.275-27.315-13.481-17.292-19.125c5.887-3.315,32.757-8.4,29.069-11.106c-30.507-22.381-36.697-34.075-33.454-35.159
	c28.823-9.629,60.173-7.935,87.422-20.597c3.838-1.784-7.258,6.423-11.199,4.845c-15.053-6.027-86.131-41.058-85.085-41.763
	c3.462-2.333,9.504-5.532,15.016-7.65c33.852-13.009,99.233-9.314,98.177-9.688c-19.444-6.889-39.338-13.522-58.356-21.37
	c-14.142-5.837-51.126-35.316-47.846-37.449c14.889-9.684,57.153-13.4,77.219-14.411
	C351.304,603.016,402.497,604.758,456.329,604.758"/>
<path d="M198.656,616.836c-27.562-22.055,14.892-115.503,134.401-193.554c36.126-23.594,116.472-45.494,171.583-64.079
	c23.113-7.794,41.062-13.311,50.168-21.022c87.806-74.352-14.705-83.258-14.731-43.398c0.026-39.859,107.868-24.658,20.062,49.694
	c-9.106,7.71-28.668,17.956-51.781,25.75c-55.111,18.585-135.487,35.108-171.612,58.702
	C217.235,506.981,171.094,594.781,198.656,616.836"/>
<path d="M896.355,78.77c-31.772-31.772-244.048,61.993-301.373,128.614c-16.091,18.701-20.325,32.938-4.308,44.217
	c44.201,31.127,48.897,328.442,100.421,338.096c-51.524-9.654-61.588-299.347-105.789-330.474
	c-16.017-11.279-14.55-40.137,1.542-58.838C644.173,133.764,864.582,46.998,896.355,78.77"/>
<path d="M175.108,657.379c-10.497,21.5,39.56-36.356,23.494-30.909c-37.831,12.828-60.314,5.2-66.402-12.279
	c-17.01-48.844,58.039-179.534,12.82-176.274c45.218-3.26-19.99,124.002-2.979,172.847c6.087,17.48,17.251,24.171,55.081,11.343
	C213.188,616.66,164.61,678.88,175.108,657.379"/>
<path d="M451.471,413.38c17.379,34.187,72.827,104.457,92.588,192.942c17.65,79.035,2.132,173.65-19.542,253.341
	c21.674-79.692-9.27-163.931-26.92-242.965C477.836,528.213,468.85,447.567,451.471,413.38"/>
<path d="M427.062,425.369c6.009,28.401,38.564,90.885,35.677,159.453c-2.579,61.244-38.241,127.139-69.701,181.159
	c31.46-54.021,19.558-121.918,22.137-183.162C418.062,514.251,433.072,453.769,427.062,425.369"/>
<path d="M473,401.327c30.496,42.056,111.721,127.422,156.91,241.615c40.369,102.013,47.511,228.8,35.396,340.028
	c12.115-111.228-39.294-220.497-79.664-322.51C540.453,546.267,503.496,443.382,473,401.327"/>
</svg>
