<?xml version="1.0" encoding="utf-8"?>
<!-- Generator: Adobe Illustrator 17.0.0, SVG Export Plug-In . SVG Version: 6.00 Build 0)  -->
<!DOCTYPE svg PUBLIC "-//W3C//DTD SVG 1.1//EN" "http://www.w3.org/Graphics/SVG/1.1/DTD/svg11.dtd">
<svg version="1.1" id="Layer_1" xmlns="http://www.w3.org/2000/svg" xmlns:xlink="http://www.w3.org/1999/xlink" x="0px" y="0px"
	 width="1000px" height="1000px" viewBox="0 0 1000 1000" enable-background="new 0 0 1000 1000" xml:space="preserve">
<g>
	<path d="M741.494,513.579c0,0-0.042,0.82-0.12,2.357c-0.108,1.53-0.24,3.812-0.572,6.677c-0.347,2.865-0.762,6.363-1.543,10.329
		c-0.764,3.968-1.741,8.447-3.179,13.244c-1.411,4.805-3.243,9.941-5.563,15.223c-0.565,1.328-1.195,2.647-1.813,3.994
		c-0.662,1.324-1.306,2.68-2.022,4.017c-1.385,2.7-2.918,5.395-4.558,8.088c-3.272,5.391-7.036,10.721-11.155,15.884
		c-4.127,5.16-8.629,10.128-13.35,14.855l-3.553,3.476c-1.155,1.125-2.463,2.269-3.685,3.399c-1.236,1.15-2.493,2.224-3.742,3.308
		c-1.24,1.094-2.502,2.156-3.788,3.178c-2.535,2.089-5.118,4.075-7.688,6.01c-2.621,1.868-5.177,3.756-7.794,5.465
		c-2.588,1.751-5.21,3.354-7.763,4.937c-1.275,0.793-2.588,1.496-3.856,2.234c-1.281,0.717-2.518,1.469-3.791,2.124
		c-5.05,2.685-9.896,5.073-14.484,7.012c-1.144,0.488-2.264,0.965-3.359,1.432c-1.11,0.431-2.194,0.852-3.25,1.263
		c-1.06,0.397-2.093,0.785-3.098,1.161c-1.008,0.366-2.002,0.684-2.955,1.011c-1.919,0.625-3.678,1.292-5.362,1.758
		c-1.677,0.475-3.217,0.911-4.608,1.305c-1.382,0.411-2.638,0.708-3.734,0.954c-1.092,0.251-2.021,0.465-2.775,0.638
		c-1.507,0.331-2.311,0.508-2.311,0.508l-0.31-0.951c0,0,0.739-0.357,2.125-1.026c1.383-0.669,3.432-1.585,5.992-2.84
		c2.556-1.267,5.659-2.777,9.155-4.615c0.874-0.458,1.785-0.91,2.704-1.413c0.914-0.512,1.855-1.038,2.82-1.578
		c0.969-0.527,1.962-1.068,2.98-1.621c1-0.585,2.022-1.183,3.067-1.794c1.045-0.605,2.111-1.223,3.198-1.853
		c1.069-0.659,2.158-1.33,3.266-2.012c2.242-1.313,4.468-2.824,6.792-4.307c4.6-3.042,9.398-6.318,14.179-9.946
		c4.82-3.571,9.665-7.436,14.432-11.538c1.205-1.01,2.38-2.063,3.565-3.112c1.186-1.048,2.389-2.092,3.524-3.17
		c1.156-1.09,2.299-2.096,3.472-3.257l3.474-3.344c4.514-4.507,8.915-9.117,12.941-13.901c4.079-4.742,7.81-9.63,11.201-14.512
		c3.37-4.897,6.382-9.802,8.992-14.605c2.604-4.805,4.844-9.486,6.716-13.91c1.864-4.425,3.46-8.558,4.716-12.288
		c1.24-3.733,2.297-7.018,3.082-9.754c0.77-2.742,1.403-4.885,1.785-6.376c0.403-1.486,0.619-2.278,0.619-2.278L741.494,513.579z"/>
</g>
<g>
	<path d="M465.966,444.543c9.841,5.241,19.072,11.588,27.826,18.534c8.714,7.007,16.921,14.736,24.344,23.242
		c3.723,4.241,7.241,8.678,10.539,13.29c3.273,4.629,6.358,9.405,9.212,14.328c5.709,9.842,10.48,20.296,13.978,31.196
		c3.504,10.895,5.734,22.219,6.587,33.624c0.822,11.41,0.301,22.866-1.319,34.093c-1.618,11.233-4.278,22.252-7.714,32.963
		c-3.468,10.705-7.727,21.095-12.491,31.196c-4.762,10.106-10.046,19.925-15.693,29.5c-1.43,2.383-2.863,4.763-4.34,7.114
		l-1.099,1.769l-0.509,0.833l-0.53,0.886l-2.11,3.539c-2.631,4.596-5.109,9.43-7.373,14.315c-2.252,4.903-4.256,9.925-6.112,15.01
		c-1.844,5.091-3.45,10.278-4.955,15.5c-2.929,10.472-5.338,21.132-7.355,31.894c-2.044,10.757-3.743,21.605-5.331,32.478
		c-1.57,10.877-3.081,21.775-4.559,32.682l-4.469,32.727c-1.544,10.904-3.102,21.806-4.788,32.689l-0.584,4.703L467,927.924v-0.002
		c-2-11.594-2.502-23.204-3.53-34.825c-1.04-11.62-1.966-23.259-2.698-34.911c-0.716-11.653-1.347-23.32-1.683-35.004
		c-0.328-11.683-0.467-23.381-0.316-35.087c0.156-11.705,0.558-23.42,1.345-35.125c0.806-11.703,1.983-23.392,3.56-35.041
		c1.585-11.647,3.552-23.257,6.031-34.771c1.246-5.755,2.553-11.501,4.035-17.204c0.709-2.86,1.49-5.701,2.271-8.543l0.583-2.132
		l0.537-2.071c0.388-1.43,0.703-2.779,1.029-4.136c2.598-10.998,4.132-22.234,4.063-33.325c-0.007-2.773-0.135-5.536-0.354-8.28
		c-0.208-2.745-0.498-5.478-0.936-8.178c-0.863-5.402-2.173-10.703-3.99-15.801c-3.617-10.207-9.304-19.544-16.565-27.491
		c-7.221-7.984-16.092-14.526-25.711-19.409l-0.905-0.45l-0.801-0.388l-1.99-0.904c-1.32-0.593-2.668-1.227-3.964-1.786
		c-2.544-1.023-5.016-2.107-7.683-3.044c-5.236-1.966-10.589-3.635-15.993-5.13c-5.408-1.479-10.88-2.78-16.414-3.822
		c-2.757-0.577-5.54-1.031-8.323-1.504c-2.795-0.389-5.586-0.851-8.398-1.182c-11.237-1.41-22.625-2.123-34.102-2.236
		c-11.481-0.094-23.038,0.344-34.715,1.391l-0.242-0.97c10.985-4.437,22.61-7.15,34.37-8.917
		c11.777-1.726,23.769-2.289,35.757-1.706c11.989,0.549,23.98,2.339,35.682,5.393l2.196,0.565l2.179,0.633
		c1.45,0.432,2.912,0.824,4.352,1.292c2.872,0.962,5.752,1.899,8.577,3.001c2.829,1.008,5.699,2.263,8.551,3.44
		c1.376,0.602,2.662,1.214,3.998,1.821l1.986,0.912l1.165,0.566l1.05,0.527c5.586,2.834,10.876,6.192,15.822,10.016
		c4.946,3.821,9.557,8.098,13.708,12.802c8.336,9.385,14.63,20.592,18.51,32.458c3.858,11.887,5.414,24.365,4.912,36.572
		c-0.461,12.229-2.65,24.174-5.91,35.724c-1.676,5.83-3.464,11.226-4.979,16.795c-1.587,5.541-3.005,11.13-4.363,16.735
		c-2.705,11.214-4.917,22.554-6.757,33.963c-1.838,11.41-3.265,22.897-4.374,34.426c-1.139,11.527-1.91,23.102-2.428,34.696
		c-0.514,11.595-0.758,23.213-0.796,34.838c-0.045,11.625,0.062,23.26,0.348,34.897c0.27,11.637,0.893,23.273,1.381,34.913
		c0.503,11.639,0.92,23.275,1.92,34.915v0.002l-1.14-0.024l3.314-32.848l3.242-32.862c1.1-10.956,2.177-21.918,3.463-32.871
		c1.276-10.953,2.657-21.908,4.406-32.839c1.734-10.929,3.81-21.844,6.597-32.635c1.42-5.388,2.948-10.759,4.732-16.062
		c1.797-5.297,3.755-10.552,5.981-15.707c2.249-5.154,4.676-10.183,7.404-15.203l4.095-7.221c1.361-2.365,2.675-4.754,3.986-7.143
		c5.25-9.552,10.155-19.275,14.496-29.215c4.368-9.928,8.132-20.084,11.243-30.39c3.115-10.303,5.453-20.802,6.796-31.387
		c1.345-10.582,1.641-21.254,0.701-31.794c-0.882-10.542-2.971-20.958-6.27-31.001c-3.287-10.047-7.757-19.714-13.143-28.88
		c-5.382-9.177-11.71-17.808-18.424-26.175c-6.714-8.375-13.911-16.436-21.345-24.387c-3.705-3.99-7.513-7.907-11.314-11.876
		c-3.815-3.956-7.665-7.883-11.468-11.99L465.966,444.543z"/>
</g>
<g>
	<path d="M470.659,356.091c0,0,0.17-0.355,0.488-1.022c0.16-0.331,0.357-0.74,0.589-1.22c0.151-0.384,0.32-0.832,0.547-1.339
		c0.235-0.506,0.359-1.145,0.586-1.821c0.09-0.34,0.114-0.686,0.195-1.059c0.036-0.187,0.072-0.378,0.109-0.572
		c0.02-0.192,0.018-0.382,0.03-0.582c0.11-1.583-0.107-3.487-1.246-5.287c-1.082-1.82-3.075-3.431-5.534-4.319
		c-2.466-0.891-5.325-1.05-8.148-0.655c-2.818,0.453-5.632,1.531-7.978,3.23c-2.319,1.725-4.126,4.059-4.933,6.604
		c-0.814,2.569-0.764,5.143-0.161,7.725c0.094,0.207,0.175,0.407,0.243,0.604l0.319,0.642c0.237,0.392,0.486,0.722,0.766,0.984
		c0.548,0.528,1.176,0.889,2.011,1.225c1.665,0.664,4.006,1.02,6.365,1.213c0.299,0.021,0.596,0.042,0.891,0.063l0.11,0.008
		c-0.049-0.005,0.149,0.015-0.104-0.011l0.031,0.002l0.062,0.004l0.247,0.015l0.492,0.029l0.488,0.029
		c0.162,0.009,0.243-0.002,0.367,0.004c0.228,0.007,0.453,0.014,0.677,0.021c0.992-0.008,1.966,0.011,2.849-0.05
		c0.9-0.039,1.72-0.126,2.505-0.215c0.754-0.139,1.479-0.259,2.113-0.458c1.282-0.379,2.281-0.947,3.048-1.538
		c0.736-0.619,1.244-1.236,1.554-1.692c0.311-0.466,0.477-0.715,0.477-0.715L470.659,356.091z M477.079,358.521
		c0,0-0.166,0.461-0.478,1.325c-0.324,0.866-0.938,2.102-1.923,3.619c-1.039,1.466-2.562,3.147-4.653,4.574
		c-2.073,1.445-4.692,2.587-7.559,3.117c-1.441,0.298-2.923,0.386-4.461,0.392c-0.409-0.017-0.822-0.035-1.238-0.053
		c-0.197-0.009-0.44-0.022-0.601-0.041l-0.486-0.057c-0.374-0.046-0.75-0.093-1.129-0.14c-0.364-0.063-0.73-0.127-1.099-0.191
		c-1.49-0.286-3.037-0.596-4.681-1.169c-1.639-0.548-3.364-1.294-5.074-2.447c-1.697-1.139-3.372-2.808-4.434-4.847
		c-0.533-1.016-0.9-2.084-1.148-3.139c-0.097-0.529-0.196-1.045-0.265-1.58c-0.043-0.563-0.073-1.125-0.09-1.681
		c0.131-3.553,1.23-7.384,3.278-10.405c2.08-3.036,4.973-5.208,7.952-6.602c3.023-1.342,6.132-2.077,9.153-2.24
		c3.022-0.179,5.924,0.194,8.603,0.902c2.669,0.747,5.12,1.986,7.077,3.754c0.97,0.887,1.758,1.925,2.405,3
		c0.604,1.088,1.075,2.216,1.338,3.312c0.073,0.273,0.158,0.546,0.216,0.814c0.039,0.268,0.078,0.531,0.116,0.79
		c0.07,0.518,0.149,1.034,0.171,1.517c-0.012,0.957,0.049,1.846-0.052,2.671c-0.094,0.825-0.213,1.567-0.312,2.218
		c-0.111,0.538-0.224,0.969-0.307,1.332c-0.171,0.718-0.262,1.102-0.262,1.102L477.079,358.521z"/>
</g>
<g>
	<path d="M598.336,560.108c0,0-0.001,1.316-0.003,3.784c-0.019,2.467-0.046,6.085-0.081,10.689c-0.014,1.151-0.03,2.363-0.046,3.635
		c-0.023,1.272-0.022,2.601-0.112,3.99c-0.141,2.781-0.293,5.788-0.455,9.001c-0.153,3.217-0.349,6.641-0.568,10.253
		c-0.306,3.593-0.628,7.37-0.965,11.312c-0.17,1.972-0.343,3.985-0.52,6.037c-0.178,2.052-0.337,4.147-0.606,6.26
		c-0.488,4.236-0.992,8.615-1.51,13.117c-0.256,2.238-0.516,4.506-0.779,6.802c-0.13,1.152-0.262,2.31-0.393,3.476
		c-0.11,1.146-0.22,2.298-0.331,3.457c-0.427,4.641-0.826,9.457-1.21,14.359c-0.757,9.81-1.572,20.07-3.154,30.56
		c-0.781,5.245-1.875,10.53-3.187,15.813l-1.072,3.955c-0.366,1.318-0.815,2.621-1.221,3.935l-0.629,1.966l-0.723,1.942
		l-0.727,1.942l-0.364,0.971l-0.091,0.243l-0.146,0.349l-0.194,0.453c-2.117,4.84-4.001,9.63-6.454,14.524
		c-1.177,2.42-2.303,4.899-3.54,7.245c-1.24,2.341-2.476,4.674-3.708,6.999c-1.204,2.344-2.53,4.591-3.807,6.856
		c-1.295,2.252-2.54,4.527-3.857,6.726c-2.664,4.376-5.247,8.745-7.927,12.918c-5.259,8.439-10.525,16.408-15.622,23.881
		c-0.618,0.913-1.232,1.82-1.842,2.721c-0.619,0.925-1.234,1.844-1.844,2.756c-0.637,0.921-1.196,1.787-1.74,2.648
		c-0.554,0.864-1.103,1.721-1.647,2.571c-0.565,0.84-1.041,1.718-1.54,2.575c-0.506,0.854-1.007,1.701-1.504,2.54
		c-0.966,1.686-1.772,3.384-2.648,5.029c-3.313,6.617-5.325,13.143-6.75,19.147c-0.177,0.752-0.352,1.492-0.523,2.22
		c-0.089,0.365-0.176,0.726-0.263,1.084l-0.033,0.134c-0.008,0.045,0.011-0.158-0.003-0.038l-0.012,0.07l-0.048,0.281l-0.096,0.557
		c-0.261,1.479-0.513,2.905-0.754,4.274c-0.28,1.384-0.434,2.65-0.601,3.876c-0.182,1.23-0.355,2.403-0.519,3.516
		c-0.597,4.528-1.054,8.148-1.43,10.611c-0.344,2.464-0.574,3.777-0.574,3.777l-1-0.002c0,0-0.231-1.314-0.577-3.777
		c-0.381-2.463-0.833-6.07-1.272-10.736c-0.142-2.336-0.249-5.043-0.257-7.819c-0.007-1.391,0.141-2.84,0.141-4.342v-0.566v-0.285
		v-0.071c0,0.072-0.152-0.18-0.152-0.18l-0.073-0.148c0.025-0.395,0.01-0.793,0.035-1.194c0.057-0.805,0.094-1.623,0.153-2.455
		c0.475-6.638,1.841-14.293,4.836-22.15c0.815-1.914,1.581-3.924,2.496-5.879c0.952-1.928,1.869-3.931,2.963-5.874
		c0.546-0.974,1.095-1.955,1.65-2.945c0.558-0.996,1.113-2,1.688-2.909c0.578-0.933,1.159-1.873,1.745-2.819
		c0.605-0.966,1.214-1.938,1.828-2.917c2.39-3.82,4.991-7.668,7.512-11.649c1.291-1.975,2.596-3.971,3.914-5.986
		c1.291-2.024,2.595-4.067,3.91-6.128c5.249-8.248,10.465-16.844,15.452-25.719c1.22-2.231,2.445-4.47,3.674-6.716
		c1.216-2.249,2.292-4.511,3.463-6.769c2.358-4.41,4.446-9.362,6.646-14.104l0.204-0.448l0.051-0.112
		c0.063-0.144-0.028,0.07-0.003,0.008l0.086-0.217l0.346-0.867l0.693-1.734l0.697-1.733l0.623-1.767
		c0.404-1.183,0.852-2.348,1.223-3.546l1.095-3.599c1.368-4.836,2.521-9.743,3.456-14.702c1.903-9.912,3.079-19.935,4.345-29.723
		c0.623-4.899,1.237-9.72,1.994-14.488c0.188-1.193,0.375-2.38,0.561-3.56c0.202-1.155,0.403-2.304,0.603-3.446
		c0.404-2.29,0.803-4.551,1.196-6.783c0.785-4.436,1.549-8.75,2.288-12.924c0.747-4.174,1.368-8.215,2.019-12.093
		c0.635-3.881,1.244-7.6,1.823-11.137c0.478-3.539,0.943-6.898,1.411-10.055c0.458-3.161,0.888-6.12,1.284-8.856
		c0.405-2.738,0.595-5.286,0.889-7.569c0.537-4.574,0.959-8.167,1.247-10.618c0.305-2.449,0.467-3.755,0.467-3.755L598.336,560.108z
		"/>
</g>
<g>
	<path d="M599.094,718.083c0,0,0.086,0.221,0.252,0.649c0.078,0.22,0.199,0.468,0.297,0.808c0.079,0.362,0.171,0.781,0.275,1.255
		c0.306,1.866,0.375,4.644-0.247,8.002c-0.559,3.364-1.631,7.354-2.859,11.747c-0.297,1.1-0.589,2.224-0.847,3.35
		c-0.143,0.568-0.223,1.121-0.337,1.671c-0.103,0.621-0.208,1.251-0.313,1.888c-0.432,2.547-0.887,5.225-1.362,8.02
		c-0.981,5.599-2.108,11.698-3.696,18.141c-0.424,1.608-0.795,3.249-1.289,4.894c-0.504,1.644-0.982,3.315-1.529,4.995
		c-0.295,0.837-0.591,1.679-0.889,2.525l-0.449,1.273l-0.227,0.639l-0.115,0.319l-0.029,0.08l-0.07,0.167l-0.062,0.151
		c-0.666,1.606-1.338,3.228-2.016,4.863c-0.348,0.821-0.658,1.632-1.042,2.469c-0.387,0.838-0.775,1.68-1.164,2.524
		c-0.79,1.677-1.574,3.406-2.407,5.066c-1.686,3.297-3.341,6.674-5.18,9.944c-1.787,3.32-3.653,6.583-5.513,9.882
		c-1.884,3.252-3.775,6.517-5.666,9.782c-1.867,3.245-3.733,6.491-5.593,9.724c-0.907,1.63-1.813,3.258-2.716,4.88
		c-0.876,1.61-1.776,3.193-2.623,4.813c-3.419,6.451-6.631,12.839-9.277,19.174c-2.672,6.324-4.873,12.563-6.464,18.603
		c-0.399,1.509-0.734,3.009-1.099,4.484c-0.289,1.488-0.574,2.953-0.854,4.393c-0.219,1.448-0.461,2.874-0.655,4.279
		c-0.149,1.39-0.295,2.753-0.438,4.089c-0.343,5.66-0.688,10.848-1.032,15.446c-0.089,1.149-0.174,2.262-0.257,3.336
		c-0.071,1.073-0.139,2.107-0.205,3.101c-0.144,1.988-0.276,3.814-0.395,5.463c-0.221,3.299-0.479,5.718-0.622,7.487
		c-0.168,1.769-0.257,2.538-0.257,2.538h-1c0,0-0.107-0.77-0.308-2.54c-0.176-1.771-0.484-4.281-0.767-7.588
		c-0.28-3.305-0.728-7.286-0.982-11.888c-0.29-4.604-0.576-9.777-0.855-15.443c0.008-1.492,0.016-3.004,0.024-4.556
		c0.057-1.529,0.163-3.08,0.247-4.669c0.148-1.579,0.337-3.179,0.516-4.812c0.255-1.615,0.482-3.266,0.775-4.926
		c1.224-6.632,3.151-13.481,5.658-20.331c2.501-6.857,5.598-13.692,9.014-20.438c0.836-1.694,1.741-3.377,2.614-5.075
		c0.906-1.669,1.762-3.27,2.718-4.977c1.867-3.312,3.706-6.66,5.647-9.909c1.917-3.255,3.835-6.51,5.745-9.752
		c1.895-3.218,3.828-6.413,5.633-9.6c1.853-3.181,3.607-6.344,5.343-9.478c0.863-1.564,1.618-3.114,2.436-4.651
		c0.405-0.768,0.809-1.533,1.211-2.295c0.402-0.764,0.771-1.597,1.156-2.387c0.761-1.598,1.516-3.183,2.264-4.753
		c0.646-1.503,1.286-2.991,1.918-4.463c0.609-1.523,1.159-3.063,1.734-4.568c0.556-1.515,1.049-3.049,1.572-4.544
		c1.988-6.033,3.649-11.889,5.201-17.328c0.781-2.73,1.509-5.349,2.251-7.826c0.183-0.62,0.363-1.232,0.541-1.836
		c0.218-0.662,0.407-1.321,0.637-1.918c0.435-1.218,0.901-2.345,1.356-3.419c1.817-4.289,3.456-7.862,4.46-10.923
		c1.037-3.042,1.491-5.508,1.504-7.166c-0.006-0.404-0.011-0.76-0.015-1.068c-0.021-0.322-0.093-0.613-0.123-0.837
		c-0.076-0.453-0.115-0.688-0.115-0.688L599.094,718.083z"/>
</g>
<g>
	<path d="M485.963,429.554c0,0,1.183-0.055,3.4-0.159c2.223-0.054,5.454-0.317,9.631-0.232c2.083,0.033,4.403,0.001,6.916,0.095
		c2.512,0.131,5.228,0.272,8.131,0.423c2.898,0.238,5.974,0.598,9.231,0.921c1.632,0.138,3.28,0.463,4.983,0.696
		c1.701,0.26,3.442,0.526,5.22,0.797c1.771,0.312,3.561,0.736,5.397,1.111c1.829,0.408,3.715,0.741,5.597,1.234
		c1.881,0.506,3.794,1.021,5.737,1.544c0.972,0.264,1.952,0.53,2.939,0.798c0.971,0.323,1.95,0.649,2.935,0.977
		c1.975,0.648,3.962,1.35,5.983,2.04l0.189,0.065l0.348,0.151l0.359,0.157l0.72,0.314l1.446,0.63l1.454,0.634
		c0.488,0.216,1.026,0.544,1.538,0.815c1.037,0.575,2.079,1.153,3.127,1.733c1,0.611,1.925,1.27,2.899,1.911
		c1.98,1.236,3.719,2.769,5.589,4.198c3.534,3.051,6.982,6.331,10.032,9.975c3.14,3.58,6.014,7.419,8.717,11.4
		c2.692,3.989,5.174,8.139,7.518,12.379c2.288,4.266,4.471,8.607,6.41,13.056c0.509,1.102,0.974,2.222,1.441,3.342l0.703,1.678
		l0.176,0.42l0.214,0.532l0.312,0.829c0.825,2.216,1.661,4.365,2.401,6.824c0.368,1.189,0.787,2.391,1.106,3.568l0.955,3.525
		c0.655,2.344,1.112,4.714,1.67,7.057c1.895,9.427,2.89,18.787,3.341,27.805c0.442,9.022,0.316,17.701,0.02,25.884
		c-0.159,4.093-0.378,8.061-0.604,11.889c-0.067,0.987-0.134,1.966-0.2,2.937c-0.085,0.936-0.169,1.863-0.253,2.782
		c-0.246,1.907-0.457,3.909-0.832,5.691c-1.319,7.292-3.516,13.666-5.783,19.099c-2.306,5.425-4.642,9.957-6.723,13.586
		c-2.042,3.649-3.819,6.401-5.018,8.281c-1.231,1.859-1.887,2.851-1.887,2.851l-0.879-0.476c0,0,0.458-1.092,1.316-3.14
		c0.836-2.054,2.104-5.046,3.584-8.881c1.441-3.85,3.196-8.506,4.743-13.939c1.496-5.438,2.98-11.605,3.582-18.373
		c0.189-1.719,0.245-3.33,0.337-5.093c0.013-0.922,0.025-1.854,0.038-2.793c-0.009-0.906-0.018-1.821-0.027-2.743
		c-0.022-3.811-0.06-7.742-0.144-11.772c-0.045-4.031-0.175-8.159-0.33-12.366c-0.066-2.105-0.191-4.223-0.285-6.365
		c-0.141-2.133-0.284-4.287-0.428-6.459c-0.661-8.664-1.714-17.544-3.504-26.361c-0.514-2.182-0.926-4.408-1.524-6.578l-0.868-3.271
		c-0.289-1.092-0.648-2.111-0.967-3.173c-0.588-2.061-1.454-4.313-2.254-6.529l-0.3-0.833l-0.275-0.69l-0.643-1.599
		c-0.427-1.067-0.852-2.135-1.319-3.186c-3.612-8.459-7.829-16.661-12.65-24.247c-4.799-7.596-10.338-14.483-16.439-20.21
		c-1.594-1.329-3.088-2.798-4.762-3.941c-0.817-0.593-1.628-1.236-2.44-1.787c-0.813-0.505-1.622-1.008-2.426-1.508
		c-0.418-0.249-0.768-0.516-1.238-0.752l-1.422-0.702c-0.89-0.437-1.775-0.871-2.654-1.302c-1.888-0.754-3.762-1.479-5.597-2.238
		c-0.92-0.376-1.833-0.749-2.74-1.12c-0.928-0.318-1.849-0.634-2.763-0.947c-1.833-0.625-3.637-1.241-5.412-1.846
		c-1.78-0.595-3.577-1.032-5.318-1.543c-1.75-0.479-3.455-1.005-5.152-1.42c-3.408-0.765-6.656-1.63-9.788-2.262
		c-3.141-0.579-6.119-1.184-8.935-1.655c-2.828-0.426-5.475-0.824-7.922-1.192c-2.451-0.342-4.709-0.539-6.752-0.78
		c-4.074-0.527-7.348-0.682-9.553-0.88c-2.212-0.188-3.392-0.288-3.392-0.288L485.963,429.554z"/>
</g>
<g>
	<path d="M539.304,725.997l2.761-3.732c0.894-1.253,1.676-2.544,2.51-3.798c0.422-0.617,0.803-1.273,1.172-1.942l1.123-1.98
		c0.774-1.297,1.425-2.674,2.114-4.018c2.696-5.411,5.001-10.988,6.877-16.706c3.771-11.422,6.252-23.23,7.53-35.06
		c0.183-1.476,0.303-2.956,0.41-4.434l0.173-2.215l0.112-2.212l0.114-2.208l0.029-0.551l0.017-0.548l0.037-1.155l0.149-4.622
		c0.117-3.097,0.154-6.123,0.23-9.167c0.104-3.038,0.125-6.082,0.166-9.122c0.097-12.156-0.078-24.223-1.002-36.15l-0.325-4.471
		l-0.464-4.446l-0.431-4.156l-0.702-4.567l-0.689-4.568l-0.337-2.281l-0.45-2.091l-1.785-8.361
		c-2.839-11.396-6.536-22.673-10.834-33.912c-1.113-2.809-2.089-5.629-3.253-8.451l-3.388-8.468l-3.496-8.508
		c-1.196-2.886-2.336-5.712-3.478-8.582c-4.713-11.687-8.649-23.717-11.862-35.933c-0.786-3.06-1.565-6.119-2.301-9.186
		c-0.652-3.092-1.287-6.186-1.881-9.285c-1.334-6.164-2.089-12.45-2.978-18.679c-0.2-1.562-0.444-3.114-0.606-4.681l-0.409-4.71
		l-0.761-9.401l-0.189-2.345l-0.047-0.586l-0.012-0.146c-0.032-0.272-0.012-0.159-0.02-0.257l-0.01-0.289l-0.04-1.158l-0.16-4.63
		l-0.311-9.261l-0.155-4.631l-0.009-4.687l-0.026-9.355l-0.021-4.665l-0.009-2.329l0.057-2.324l0.211-9.287
		c-0.204-12.365,1.983-24.72-1.595-36.984c-2.488-12.273-5.918-24.63-6.615-37.222c-0.525-6.271-0.095-12.608,0.281-18.907
		l0.86-9.49l0.216-2.372c0.079-0.791,0.207-1.583,0.308-2.374l0.646-4.749c0.436-3.166,0.811-6.334,1.482-9.489l1.857-9.64
		l1.082-4.49l0.543-2.248l0.676-2.407l1.363-4.81l1.538-4.66l0.773-2.328l0.877-2.303l1.773-4.601l0.056-0.144l0.227-0.521
		l0.122-0.261l0.245-0.523l0.49-1.046l0.98-2.091l0.98-2.091c0.382-0.741,0.852-1.548,1.278-2.318l2.643-4.655l2.7-4.156l1.354-2.07
		l1.398-1.965l2.802-3.924l12.479-17.477l4.468,21.098c1.557,7.351,3.135,14.6,4.929,21.697c1.784,7.101,3.794,14.045,6.274,20.711
		c0.571,1.696,1.26,3.32,1.925,4.958l0.997,2.458l0.124,0.307c-0.168-0.363-0.004-0.009-0.022-0.048l0.074,0.16l0.297,0.641
		l0.595,1.283l1.189,2.566l0.595,1.279l0.595,1.131c0.804,1.512,1.551,3.012,2.39,4.541c3.429,6.221,7.382,12.255,11.588,18.205
		c4.215,5.982,8.667,11.757,13.345,17.759c4.642,5.995,9.324,12.134,13.778,18.604c4.477,6.438,8.61,13.357,12.127,20.679
		l1.314,2.752l0.164,0.344l0.082,0.172c0.083,0.188-0.07-0.178,0.206,0.466l0.261,0.657l0.523,1.314l1.046,2.628l0.523,1.314
		c0.173,0.448,0.353,0.842,0.514,1.379l1.951,6.081c0.152,0.505,0.339,1.02,0.46,1.517l0.36,1.49l0.716,2.98
		c1.8,7.958,2.922,16.08,2.976,24.194c0.119,2.029,0.003,4.052-0.048,6.076c-0.064,2.023-0.087,4.049-0.321,6.057l-0.279,3.017
		l-0.141,1.508l-0.071,0.754l-0.018,0.188l-0.048,0.403l-0.053,0.35l-0.843,5.593c-0.075,0.471-0.131,0.92-0.221,1.41l-0.301,1.508
		l-0.607,3.015l-0.613,3.012l-0.732,2.897c-0.513,1.922-0.938,3.87-1.528,5.767l-1.752,5.696
		c-2.519,7.531-5.552,14.869-9.042,21.978l-2.767,5.255l-0.694,1.312l-0.662,1.213l-1.431,2.568
		c-1.964,3.447-4.04,6.867-6.506,10.291c-1.254,1.717-2.566,3.428-4.235,5.189c-0.821,0.875-1.776,1.779-2.917,2.692
		c-1.163,0.894-2.568,1.913-4.912,2.692l-0.425,0.136l-0.518,0.12c-0.348,0.075-0.698,0.139-1.049,0.193
		c-0.695,0.111-1.617,0.107-2.412,0.061c-0.86-0.097-1.778-0.284-2.599-0.576c-0.408-0.157-0.812-0.335-1.206-0.53l-0.582-0.305
		c-1.624-1.082-0.53-0.362-0.929-0.632l-0.279-0.218c-0.098-0.082,0.024,0.03-0.256-0.212c-0.208-0.181-0.412-0.372-0.61-0.569
		c-0.396-0.396-0.768-0.822-1.104-1.265c-0.193-0.25-0.3-0.418-0.373-0.542l-0.26-0.438c-0.169-0.295-0.331-0.595-0.483-0.897
		c-0.16-0.313-0.229-0.535-0.341-0.811c-0.197-0.519-0.404-1.097-0.494-1.523c-0.495-1.928-0.536-3.368-0.549-4.727
		c-0.009-1.37,0.111-2.54,0.234-3.716c0.582-4.551,1.644-8.434,2.774-12.282c1.138-3.808,2.455-7.534,3.709-11.053l0.432-1.235
		l0.384-1.193l0.847-2.698l1.705-5.403l3.442-10.789c2.253-7.148,4.462-14.249,6.297-21.364c0.995-3.556,1.734-7.119,2.575-10.681
		l1.035-5.351l0.26-1.338l0.119-0.615l0.113-0.698c0.146-0.92,0.317-1.896,0.426-2.731c1.018-6.977,1.451-14.065,0.246-20.325
		c-0.602-3.124-1.63-6.002-3.151-8.449l-1.23-1.76l-1.413-1.602c-0.541-0.47-1.074-0.948-1.601-1.439l-2.039-1.449
		c-0.424-0.326-0.659-0.393-0.975-0.581l-0.891-0.502l-0.442-0.26l-0.535-0.243l-1.08-0.489c-0.701-0.357-1.473-0.61-2.235-0.881
		l-1.142-0.413l-1.193-0.329c-3.177-0.892-6.559-1.466-10.056-1.733c-7.004-0.557-14.294-0.194-21.763,0.358l-5.679,0.394
		l-5.646,0.356c-3.763,0.245-7.528,0.466-11.298,0.665c-3.761,0.216-7.553,0.389-11.289,0.641l-11.197,0.779
		c-3.723,0.296-7.403,0.747-11.111,1.112l-2.777,0.289l-1.389,0.144l-1.29,0.195l-5.591,0.862l-5.591,0.862
		c-0.944,0.126-1.847,0.311-2.74,0.512l-2.697,0.574l-5.4,1.146l-2.703,0.572l-0.676,0.143l-0.169,0.036
		c-0.023,0.004-0.187,0.042-0.095,0.018l-0.342,0.091l-1.366,0.366l-5.465,1.462l-5.24,1.638c-1.753,0.51-3.484,1.174-5.223,1.797
		c-1.734,0.638-3.501,1.2-5.195,1.938l-5.134,2.103l-5.1,2.32l-4.93,2.451l-4.872,2.657l-4.723,2.824
		c-1.574,1.031-3.178,2.051-4.727,3.091c-1.495,1.067-3.013,2.096-4.497,3.196c-1.46,1.137-2.963,2.228-4.393,3.405
		c-5.761,4.663-11.095,9.853-15.925,15.502c-2.396,2.812-4.761,5.81-7.2,8.705c-2.417,2.896-4.83,5.777-7.134,8.728
		c-2.276,2.967-4.477,5.99-6.396,9.184c-0.98,1.612-2.003,3.21-2.844,4.835c-0.829,1.626-1.507,3.355-1.505,5.115l-0.999,0.046
		c-0.12-2.042,0.535-3.971,1.302-5.732c0.793-1.776,1.716-3.414,2.598-5.079c1.773-3.387,3.874-6.574,6.024-9.71
		c2.181-3.112,4.46-6.138,6.723-9.154c2.271-2.996,4.423-6.039,6.764-9.096c4.648-6.084,9.945-11.683,15.689-16.772
		c1.426-1.284,2.926-2.479,4.389-3.724c1.494-1.213,3.048-2.373,4.574-3.562l4.601-3.308l4.85-3.202l4.935-2.982l5.083-2.812
		l5.09-2.592l5.234-2.421c1.732-0.844,3.535-1.511,5.309-2.254c1.784-0.72,3.552-1.467,5.4-2.084l5.493-1.934l5.408-1.661
		l1.352-0.415l0.338-0.104l0.424-0.111l0.701-0.176l2.807-0.704l5.621-1.407l2.813-0.702c0.94-0.244,1.877-0.471,2.799-0.627
		l5.556-1.066l5.556-1.066l1.498-0.281l1.418-0.201l2.837-0.402c3.782-0.514,7.573-1.117,11.354-1.557l11.34-1.207
		c3.777-0.393,7.513-0.7,11.271-1.055c7.487-0.707,15.057-1.36,22.489-2.111c7.545-0.769,15.357-1.425,23.419-1.022
		c4.029,0.196,8.144,0.741,12.258,1.768l1.543,0.385l1.537,0.495c1.025,0.331,2.051,0.649,3.056,1.104l1.514,0.637l0.759,0.327
		l0.798,0.42l1.589,0.858c0.5,0.282,1.13,0.604,1.46,0.85l1.177,0.784l0.588,0.392l0.294,0.196l0.147,0.098
		c-0.175-0.131,0.401,0.284,0.406,0.297c0.898,0.743,1.792,1.498,2.676,2.263c0.822,0.832,1.614,1.702,2.409,2.566
		c0.731,0.911,1.406,1.867,2.097,2.812c2.586,3.895,4.204,8.218,5.154,12.463c0.953,4.261,1.286,8.482,1.307,12.595
		c0.014,4.134-0.283,8.099-0.753,12.113c-0.111,1.037-0.242,1.923-0.364,2.87l-0.093,0.701l-0.123,0.778l-0.237,1.446l-0.956,5.785
		c-0.8,3.797-1.515,7.639-2.466,11.372c-1.763,7.535-3.873,14.893-5.987,22.18l-3.189,10.842l-1.576,5.423l-0.786,2.717
		l-0.449,1.509l-0.468,1.446c-1.198,3.611-2.306,7.03-3.261,10.468c-0.944,3.396-1.756,6.848-2.063,9.793
		c-0.057,0.699-0.113,1.411-0.088,1.928c0.003,0.521,0.08,0.982,0.084,0.876c-0.005,0.039-0.017-0.107-0.055-0.182
		c-0.021-0.059-0.037-0.047-0.075-0.158c-0.037-0.097-0.083-0.191-0.137-0.28l-0.262-0.38c-0.184-0.262-0.405-0.508-0.649-0.723
		c-0.122-0.108-0.251-0.208-0.383-0.299c-0.212-0.143,0.022,0.021,0.012,0.017l0.283,0.212c-0.302-0.202,0.876,0.603-0.642-0.427
		c-0.084-0.056-0.171-0.109-0.26-0.157c-0.179-0.097-0.37-0.176-0.563-0.235c-0.378-0.144-0.823-0.257-1.223-0.27
		c-0.174-0.027-0.353-0.038-0.531-0.032c-0.174,0.003-0.375,0.043-0.471,0.039c-0.12,0.008-0.239,0.028-0.355,0.058l-0.171,0.053
		l-0.093,0.016c-0.553,0.184-0.338,0.173-0.037-0.113c0.319-0.279,0.744-0.666,1.199-1.179c0.911-0.991,1.889-2.288,2.83-3.635
		c1.893-2.731,3.693-5.796,5.4-8.934l1.278-2.397l0.669-1.282l0.604-1.201l2.417-4.8c3.037-6.492,5.63-13.175,7.813-19.976
		l1.498-5.139c0.509-1.71,0.853-3.46,1.291-5.186l0.619-2.595l0.474-2.539l0.481-2.536l0.243-1.267
		c0.075-0.437,0.13-0.926,0.196-1.386l0.761-5.605l0.401-5.047c0.187-1.744,0.169-3.492,0.199-5.239
		c0.017-1.746,0.105-3.494-0.034-5.232c-0.136-6.977-1.221-13.873-2.836-20.585l-0.64-2.511c-0.206-0.844-0.417-1.682-0.696-2.439
		l-1.526-4.683c-0.1-0.371-0.314-0.836-0.485-1.265l-0.537-1.308l-1.073-2.616l-0.537-1.308l-0.268-0.654
		c0.226,0.537,0.021,0.065,0.053,0.147l-0.072-0.146l-0.144-0.292l-1.153-2.338c-3.08-6.235-6.747-12.288-10.945-18.186
		c-4.162-5.912-8.686-11.729-13.341-17.61c-4.655-5.846-9.486-11.966-14.022-18.27c-4.538-6.334-8.912-12.905-12.813-19.873
		c-0.987-1.769-1.941-3.636-2.906-5.454l-0.72-1.373l-0.606-1.282l-1.205-2.558l-0.603-1.279l-0.301-0.64l-0.244-0.53l-0.144-0.347
		l-1.151-2.775c-0.765-1.851-1.554-3.697-2.204-5.571c-2.822-7.458-5.052-15.015-6.991-22.526
		c-1.949-7.515-3.624-14.997-5.239-22.391l16.947,3.622l-2.557,3.602l-1.278,1.8l-1.167,1.801l-2.33,3.592l-1.918,3.378
		c-0.324,0.575-0.651,1.088-0.977,1.712l-0.975,2.093l-1.762,3.795l-1.537,4.024l-0.766,2.013l-0.674,2.058l-1.353,4.114
		l-1.146,4.081l-0.579,2.039l-0.537,2.243l-1.073,4.493l-1.601,8.509c-0.615,2.874-0.951,5.827-1.349,8.763l-0.592,4.405
		c-0.093,0.736-0.212,1.465-0.284,2.206l-0.196,2.228l-0.79,8.912c-0.207,2.986-0.293,5.993-0.541,8.985l-0.406,4.495
		c-0.128,1.507-0.273,3.015-0.451,4.523c-1.423,12.035-4.46,24.318-6.597,36.675c-0.953,6.174-2.348,12.355-1.27,18.49l0.773,9.21
		l1.024,9.186c0.704,6.117,1.412,12.237,2.389,18.28l1.383,9.067c0.242,1.509,0.459,3.012,0.721,4.522l0.876,4.549l1.75,9.099
		l0.871,4.55l0.218,1.138l0.054,0.284c0,0,0.031,0.207,0.015,0.03l0.033,0.139l0.133,0.555l0.532,2.218l2.123,8.848l1.033,4.415
		c0.367,1.466,0.817,2.917,1.221,4.374c1.662,5.82,3.133,11.657,5.049,17.382l2.674,8.62c1.005,2.84,1.968,5.688,2.923,8.535
		c3.924,11.357,8.148,22.6,12.692,33.743c4.62,11.333,9.354,22.819,13.648,34.677c4.203,11.874,8.09,24.084,10.663,36.736
		c0.604,3.238,1.145,6.525,1.706,9.781l0.414,2.446l0.255,2.299l0.483,4.595l0.47,4.596c0.069,0.622,0.024,0.258,0.041,0.436
		l0.008,0.149l0.016,0.298l0.032,0.596l0.064,1.192l0.127,2.383l0.252,4.764l0.106,4.757c0.217,12.683-0.356,25.276-1.499,37.719
		c-0.534,6.204-1.224,12.47-1.994,18.584l-0.576,4.588l-0.144,1.147l-0.075,0.603l-0.086,0.598l-0.346,2.388
		c-0.208,1.595-0.503,3.173-0.804,4.745c-0.286,1.576-0.585,3.147-0.947,4.703c-1.342,6.243-3.026,12.385-5.127,18.38
		c-2.057,6.006-4.52,11.862-7.293,17.55c-2.827,5.666-6.074,11.125-9.78,16.233c-0.925,1.278-1.838,2.557-2.88,3.75l-1.511,1.814
		c-0.494,0.607-1.004,1.206-1.564,1.777c-1.096,1.145-2.152,2.33-3.263,3.412l-3.443,3.113L539.304,725.997z"/>
</g>
<g>
	<path d="M194.584,364.173c-0.441,7.007,0.751,14.044,2.948,20.674c2.243,6.605,5.533,12.928,10.154,18.024
		c2.31,2.512,4.984,4.764,7.981,6.104c3.041,1.405,6.387,2.193,9.792,2.611c6.836,0.847,13.849,0.352,20.884-0.177
		c3.528-0.263,7.072-0.574,10.721-0.663l10.625-0.233l21.206-0.471c3.261-0.136,6.895-0.722,10.807-0.63
		c1.971,0.072,4.072,0.267,6.3,1.121l0.834,0.369l0.207,0.095l0.226,0.119l0.293,0.157l0.294,0.158l0.366,0.217
		c0.24,0.145,0.5,0.296,0.706,0.437c0.882,0.563,1.703,1.19,2.48,1.849c3.108,2.652,5.445,5.808,7.433,9.027
		c1.996,3.225,3.628,6.568,5.096,9.936c2.918,6.742,5.151,13.62,7.332,20.373c1.091,3.368,2.157,6.729,3.325,9.89
		c0.295,0.796,0.584,1.542,0.908,2.321l1.012,2.516c0.66,1.671,1.291,3.288,1.943,4.85c1.301,3.101,2.698,5.984,4.398,8.182
		c1.704,2.214,3.592,3.651,5.854,4.409c0.281,0.1,0.579,0.175,0.869,0.262l0.453,0.104l0.225,0.054
		c-0.675-0.142-0.14-0.032-0.269-0.061l0.082,0.012l0.164,0.024c0.692,0.118,0.209-0.037,0.356-0.006
		c0.217-0.024,0.428-0.029,0.727-0.082c1.123-0.157,2.598-0.553,4.064-1.047c2.97-1.004,6.069-2.351,9.132-3.801
		c6.146-2.92,12.251-6.278,18.294-9.753c6.041-3.492,12.012-7.17,17.84-11.097c5.831-3.921,11.508-8.106,17.099-12.408
		c2.8-2.143,5.62-4.254,8.228-6.686c2.606-2.405,5.113-5.074,7.541-7.573l2.834,23.033l-2.121-0.52
		c-0.648-0.166-1.293-0.326-1.924-0.512c-1.268-0.359-2.521-0.743-3.761-1.181c-2.487-0.861-4.933-1.889-7.364-3.132
		c-2.43-1.242-4.836-2.683-7.244-4.448c-2.411-1.756-4.863-3.738-7.345-6.421c-0.611-0.637-1.243-1.417-1.848-2.153
		c-0.621-0.832-1.219-1.593-1.815-2.564c-0.59-0.893-1.162-1.952-1.693-3.024c-0.265-0.548-0.515-1.166-0.753-1.754
		c-0.121-0.311-0.231-0.567-0.352-0.926l-0.133-0.41l-0.545-1.698l-0.601-1.952c-0.357-1.214-0.699-2.412-1.02-3.585
		c-1.28-4.681-2.325-9.01-3.491-12.626c-1.155-3.634-2.442-6.398-3.771-8.131c-0.671-0.885-1.352-1.574-2.194-2.202
		c-0.84-0.623-1.869-1.183-3.138-1.666c-1.274-0.472-2.724-0.903-4.388-1.171c-0.796-0.145-1.736-0.258-2.514-0.355l-1.567-0.129
		c-0.42-0.03-0.837-0.064-1.352-0.084c-3.91-0.196-8.17-0.075-12.638,0.132c-4.475,0.188-9.168,0.459-14.086,0.552
		c-4.917,0.086-10.077,0.004-15.486-0.683c-2.703-0.348-5.467-0.859-8.253-1.603l-1.045-0.289l-0.261-0.073l-0.13-0.036
		c-0.839-0.247-0.291-0.089-0.505-0.153l-0.408-0.14l-0.815-0.28l-0.408-0.14l-0.641-0.247l-1.309-0.528
		c-0.417-0.177-0.912-0.372-1.231-0.541c-0.709-0.351-1.422-0.702-2.117-1.067c-5.465-3.015-9.712-6.785-13.381-10.612
		c-3.658-3.851-6.75-7.835-9.611-11.818c-2.844-3.987-5.447-7.982-7.952-11.914c-2.508-3.917-4.885-7.817-7.289-11.453
		c-1.204-1.823-2.392-3.563-3.617-5.2l-4.158-5.551c-5.488-7.351-10.778-14.438-16.685-20.396c-2.952-2.976-6.058-5.657-9.374-7.955
		c-3.323-2.282-6.851-4.196-10.602-5.681c-1.874-0.759-3.792-1.385-5.786-1.928l-1.647-0.439l-1.487-0.36
		c-0.979-0.245-2.083-0.458-3.124-0.685c-4.255-0.84-8.641-1.474-13.141-2.011c-8.979-1.099-18.385-1.874-27.87-3.987
		c-4.73-1.109-9.477-2.528-14.027-4.585c-4.56-2.006-8.883-4.662-12.746-7.82c-3.864-3.141-7.254-6.903-10.055-10.818
		c-2.831-3.919-5.247-8.023-7.39-12.233c-4.287-8.414-7.61-17.205-10.029-26.226c-1.174-4.52-2.113-9.1-2.692-13.729
		c-0.58-4.623-0.803-9.311-0.376-13.949l0.999,0.049c0.033,4.552,0.698,9.069,1.703,13.493c1.004,4.428,2.352,8.77,3.918,13.023
		c3.115,8.507,7.083,16.704,11.846,24.294c4.807,7.545,10.257,14.664,17.192,19.372c6.914,4.846,15.072,7.406,23.648,8.653
		c8.606,1.285,17.617,1.41,26.944,1.864c4.66,0.22,9.422,0.553,14.247,1.15c1.222,0.173,2.39,0.312,3.662,0.53l1.893,0.32
		l1.714,0.327c2.483,0.486,4.998,1.108,7.452,1.897c4.935,1.53,9.694,3.735,14.124,6.385c4.426,2.662,8.507,5.775,12.248,9.096
		c7.487,6.669,13.668,14.037,19.638,21.041l4.45,5.22c1.657,1.944,3.189,3.912,4.643,5.838c2.907,3.867,5.59,7.644,8.228,11.343
		c2.638,3.686,5.259,7.258,7.943,10.617c2.684,3.343,5.441,6.48,8.274,9.144c2.821,2.66,5.746,4.813,8.437,6.077l0.992,0.422
		c0.192,0.094,0.245,0.081,0.358,0.124c0.1,0.031,0.198,0.067,0.294,0.106c0.057,0.021,0.077,0.037,0.162,0.066l0.415,0.118
		l0.829,0.236l0.415,0.118c-0.145-0.043,0.471,0.138-0.299-0.089l0.078,0.016l0.157,0.033l0.626,0.134
		c1.679,0.347,3.461,0.581,5.328,0.716c7.516,0.544,16.137-0.518,25.491-1.426c4.7-0.425,9.629-0.82,14.912-0.805
		c0.635-0.004,1.365,0.014,2.093,0.034l1.874,0.069c1.51,0.093,2.862,0.183,4.341,0.359c2.896,0.315,5.943,0.931,9.036,1.881
		c3.091,0.959,6.273,2.334,9.279,4.232c3.007,1.885,5.787,4.291,8.08,6.917c2.304,2.627,4.132,5.431,5.6,8.149
		c1.471,2.725,2.604,5.375,3.573,7.896c1.921,5.046,3.249,9.608,4.629,13.724c0.341,1.027,0.685,2.023,1.029,2.998l1.078,2.876
		l0.154,0.402c-0.029-0.087-0.013-0.084-0.027-0.128c-0.009-0.062-0.059-0.139-0.068-0.174c0.005-0.055-0.038-0.094,0.025-0.039
		c-0.006,0.016,0.139,0.138,0.197,0.232c0.148,0.132,0.227,0.258,0.428,0.434c0.667,0.67,1.811,1.588,3.153,2.481
		c1.343,0.892,2.879,1.829,4.477,2.8l9.934,6.011l24.188,14.637l-21.355,8.396c-3.502,1.377-6.96,2.53-10.333,3.922
		c-3.373,1.364-6.554,3.018-9.772,4.61c-6.447,3.168-12.884,6.331-19.262,9.598L389.218,483c-6.426,3.248-12.923,6.389-19.74,9.191
		c-3.421,1.394-6.902,2.711-10.709,3.775c-1.924,0.519-3.901,0.995-6.304,1.203c-0.58,0.06-1.255,0.071-1.923,0.068
		c-0.735-0.004-2.11-0.169-2.285-0.239l-0.677-0.14l-0.415-0.121l-0.829-0.246c-0.55-0.19-1.101-0.376-1.642-0.601
		c-2.172-0.884-4.247-2.131-6.017-3.649c-1.786-1.505-3.258-3.249-4.472-5.025c-2.431-3.579-3.879-7.257-5.145-10.742
		c-0.621-1.744-1.187-3.46-1.743-5.116l-0.842-2.462c-0.309-0.875-0.613-1.798-0.887-2.679c-1.1-3.551-1.991-7.001-2.905-10.426
		c-1.811-6.834-3.62-13.559-6-19.966c-1.194-3.193-2.523-6.307-4.108-9.198c-1.594-2.874-3.45-5.546-5.658-7.6
		c-0.551-0.512-1.121-0.989-1.715-1.405c-0.154-0.117-0.276-0.19-0.41-0.283l-0.197-0.135l-0.284-0.169l-0.286-0.17l-0.071-0.042
		c-0.085-0.048,0.033,0.016,0.006,0.003l-0.094-0.045l-0.372-0.189c-1.064-0.48-2.532-0.748-4.085-0.863
		c-1.568-0.111-3.247-0.076-4.975-0.01c-1.715,0.063-3.547,0.187-5.445,0.178l-21.296-0.462l-10.626-0.235
		c-3.436-0.068-6.965,0.081-10.51,0.19c-7.089,0.217-14.321,0.41-21.544-0.716c-3.598-0.573-7.208-1.543-10.549-3.232
		c-3.428-1.705-6.176-4.24-8.556-7.006c-4.72-5.601-7.852-12.248-9.918-19.103c-2.017-6.867-3.063-14.089-2.405-21.23
		L194.584,364.173z"/>
</g>
<g>
	<path d="M816.767,512.78c0,0,0.142-0.227,0.416-0.666c0.253-0.44,0.729-1.091,1.165-1.943c0.873-1.583,2.131-4.388,1.44-7.308
		c-0.354-1.446-1.239-2.894-2.614-4.308c-1.373-1.412-3.174-2.789-5.214-4.233c-1.016-0.722-2.116-1.448-3.258-2.216
		c-0.285-0.193-0.572-0.387-0.861-0.583c-0.316-0.232-0.635-0.466-0.955-0.701c-0.571-0.421-1.149-0.847-1.735-1.279
		s-1.179-0.87-1.78-1.313c-0.601-0.462-1.209-0.842-1.824-1.409c-1.226-1.08-2.48-2.184-3.761-3.312
		c-4.934-4.606-9.739-10.117-13.992-16.584c-4.25-6.452-7.829-13.781-10.841-21.52c-1.483-3.878-2.843-7.861-4.069-11.906
		c-0.656-2.021-1.172-4.067-1.74-6.119c-0.579-2.054-1.08-4.115-1.596-6.186c-0.529-2.073-1.017-4.144-1.474-6.229
		c-0.476-2.087-0.921-4.169-1.363-6.254c-0.439-2.08-0.879-4.164-1.319-6.25l-0.326-1.561l-0.341-1.727l-0.275-1.569l-0.137-0.785
		l-0.128-0.891c-0.167-1.213-0.341-2.458-0.443-3.541c-0.127-1.131-0.232-2.237-0.322-3.324c-0.173-2.127-0.345-4.251-0.517-6.372
		c-0.297-4.13-0.679-8.001-1.431-11.505c-0.753-3.497-1.784-6.611-3.378-9.152l-0.639-0.914l-0.312-0.462l-0.077-0.116l-0.039-0.058
		c0.275,0.325,0.041,0.048,0.087,0.102l-0.244-0.294l-0.966-1.18l-0.237-0.288l-0.192-0.206l-0.381-0.415
		c-0.452-0.532-1.11-1.174-1.728-1.794c-0.637-0.622-1.306-1.236-1.99-1.857c-2.778-2.477-5.91-5.013-8.971-8.095
		c-1.526-1.504-3.007-3.22-4.341-5.018c-1.29-1.868-2.501-3.802-3.391-5.871c-0.227-0.514-0.461-1.022-0.671-1.535
		c-0.18-0.524-0.36-1.046-0.539-1.566l-0.262-0.778l-0.129-0.388l-0.07-0.227l-0.021-0.081l-0.041-0.163l-0.315-1.3
		c-0.203-0.931-0.469-2.111-0.607-3.037c-0.162-0.966-0.296-1.916-0.395-2.85c-0.449-3.744-0.448-7.217-0.463-10.462
		c0.029-6.465,0.24-12.057-0.518-16.706c-0.675-4.658-2.391-8.292-4.605-10.868c-2.197-2.583-4.592-4.205-6.272-5.167
		c-0.826-0.525-1.52-0.825-1.963-1.085c-0.453-0.242-0.687-0.367-0.687-0.367l0.304-0.953c0,0,0.267,0.053,0.783,0.155
		c0.511,0.123,1.306,0.207,2.287,0.525c1.979,0.542,4.972,1.482,8.285,3.926c1.638,1.223,3.315,2.854,4.791,4.91
		c1.458,2.063,2.7,4.522,3.641,7.208c1.91,5.393,2.661,11.553,3.51,17.785c0.431,3.108,0.91,6.268,1.617,9.3
		c0.172,0.763,0.37,1.512,0.586,2.252c0.217,0.783,0.415,1.305,0.673,2.084l0.463,1.255l0.057,0.158l0.028,0.079
		c0.019,0.059-0.064-0.21-0.016-0.069l0.112,0.239l0.222,0.48l0.433,0.964l0.526,0.917c0.668,1.237,1.571,2.366,2.513,3.5
		c1.04,1.098,2.084,2.221,3.39,3.306c2.506,2.196,5.66,4.362,8.96,7.031c0.828,0.674,1.672,1.368,2.513,2.105
		c0.842,0.757,1.672,1.477,2.596,2.428l0.674,0.677l0.336,0.341l0.262,0.286l1.022,1.132l0.254,0.286l0.208,0.249l0.073,0.097
		l0.147,0.194l0.585,0.779l1.159,1.574c2.903,4.339,4.673,9.181,5.72,13.831c1.046,4.668,1.51,9.21,1.861,13.513
		c0.152,2.099,0.304,4.202,0.456,6.307c0.076,1.029,0.163,2.037,0.265,3.018c0.088,1.033,0.209,1.891,0.316,2.785
		c0.03,0.231,0.046,0.429,0.087,0.687l0.13,0.786l0.261,1.571l0.548,2.964c0.381,2.078,0.763,4.153,1.143,6.225
		c0.381,2.066,0.765,4.125,1.172,6.156c0.4,2.032,0.798,4.058,1.195,6.076c0.408,2.008,0.803,4.015,1.264,5.973
		c0.444,1.967,0.875,3.936,1.369,5.85c0.917,3.867,1.95,7.627,3.091,11.267c2.24,7.294,4.937,14.108,8.129,20.232
		c0.818,1.517,1.695,2.969,2.5,4.447c0.391,0.748,0.839,1.447,1.3,2.13c0.452,0.691,0.9,1.377,1.345,2.057
		c0.452,0.675,0.87,1.373,1.341,2.018c0.484,0.636,0.963,1.267,1.438,1.892c0.472,0.631,0.94,1.256,1.404,1.875l0.695,0.923
		l0.733,0.837c0.974,1.123,1.928,2.222,2.86,3.297c0.427,0.551,1.033,1.075,1.544,1.602c0.53,0.525,1.054,1.044,1.571,1.557
		c0.517,0.512,1.028,1.018,1.531,1.517l0.657,0.654c0.258,0.237,0.514,0.473,0.768,0.707c1.009,0.947,2.01,1.87,2.972,2.82
		c1.927,1.873,3.711,3.799,5.098,5.921c1.395,2.095,2.337,4.488,2.429,6.744c-0.006,0.563,0.003,1.108-0.037,1.625
		c-0.093,0.513-0.193,1.006-0.3,1.476c-0.071,0.482-0.314,0.88-0.457,1.295c-0.178,0.399-0.299,0.81-0.509,1.146
		c-0.416,0.676-0.762,1.311-1.148,1.846c-0.411,0.513-0.784,0.978-1.118,1.395c-0.666,0.806-1.258,1.263-1.618,1.648
		c-0.372,0.361-0.565,0.547-0.565,0.547L816.767,512.78z"/>
</g>
<g>
	<path d="M771.014,582.977l-2.978,5.375l-1.489,2.688c-0.501,0.893-1.064,1.76-1.593,2.643l-3.234,5.286
		c-1.091,1.757-2.299,3.426-3.446,5.148c-2.25,3.476-4.825,6.719-7.334,10.032c-1.215,1.691-2.648,3.2-3.982,4.8
		c-1.375,1.562-2.672,3.205-4.122,4.707l-4.384,4.491c-0.744,0.737-1.441,1.527-2.225,2.223l-2.35,2.096l-4.724,4.196l-5.029,3.853
		l-2.526,1.93l-0.316,0.241l-0.424,0.281l-0.639,0.426l-1.278,0.852l-1.29,0.852l-1.436,0.85c-0.953,0.547-1.938,1.175-2.875,1.653
		c-3.774,2.098-7.628,3.849-11.397,5.571c-3.774,1.711-7.476,3.321-10.929,5.082c-3.462,1.755-6.701,3.643-9.622,5.774
		c-2.884,2.169-5.43,4.61-7.699,7.281l-1.612,2.086l-0.353,0.452l-0.442,0.628l-0.729,1.101c-1.068,1.611-2.242,3.478-3.75,5.442
		c-0.748,0.981-1.591,1.999-2.616,3.036c-1.022,1.03-2.195,2.094-3.767,3.079c-0.358,0.247-0.814,0.481-1.237,0.71l-0.324,0.169
		l-0.163,0.083l-0.081,0.041c0.058-0.02-0.83,0.344-0.474,0.198l-0.352,0.153l-0.352,0.153c-0.081,0.032-0.066,0.036-0.227,0.091
		l-0.415,0.141c-0.542,0.178-1.153,0.36-1.658,0.483c-1.732,0.413-3.256,0.555-4.624,0.641c-2.689,0.135-4.763,0.044-6.18,0.18
		c-0.73,0.049-1.188,0.169-1.444,0.266c-0.144,0.042-0.157,0.102-0.188,0.116c-0.43,0.167,0.586-0.229,0.462-0.178l-0.043,0.021
		l-0.086,0.042l-0.173,0.084l-0.346,0.167l-0.534,0.335c-0.044,0.024,0.015,0.064,0.015,0.075v0.032l-0.161,0.053
		c-0.004,0.031-0.089,0.052-0.101,0.066l-0.211,0.167l-0.266,0.22c-0.331,0.322-0.685,0.682-1.039,1.141
		c-0.71,0.895-1.458,2.077-2.189,3.475c-0.735,1.399-1.459,3.003-2.218,4.775c-0.766,1.776-1.555,3.718-2.607,5.922l-0.002,0.003
		l-3.017-13.21c2.667,1.947,5.288,3.958,7.9,5.981c1.314,1,2.602,2.036,3.898,3.061l3.885,3.08l3.848,3.13
		c1.277,1.051,2.572,2.078,3.834,3.149c2.539,2.123,5.072,4.253,7.552,6.456l0.001,0l-6.527-1.522
		c4.734-0.687,9.477-1.685,14.192-2.931c4.72-1.233,9.385-2.819,14.009-4.544c4.63-1.723,9.174-3.734,13.659-5.885
		c4.49-2.145,8.884-4.517,13.185-7.052c4.304-2.53,8.519-5.228,12.581-8.13l0.767-0.538l0.192-0.134l0.096-0.067l0.048-0.034
		c-0.029,0.024,0.132-0.101-0.052,0.045l0.387-0.292l1.548-1.169l3.095-2.338l6.19-4.676l6.176-4.684l5.865-4.864l5.877-4.87
		c1.948-1.64,3.964-3.199,5.812-4.972l11.322-10.374c0.933-0.877,1.916-1.706,2.81-2.622l2.694-2.737l5.394-5.479l5.401-5.486
		l0.676-0.686l0.338-0.343l0.273-0.304l1.29-1.448l2.58-2.897l2.58-2.897c0.836-0.973,1.615-1.964,2.427-2.946
		c1.601-1.977,3.237-3.919,4.818-5.933c3.114-4.081,6.261-8.147,9.249-12.35c3.053-4.149,5.987-8.405,8.971-12.621l8.914-12.708
		c2.958-4.246,6.056-8.404,9.098-12.589l0.82,0.572c-2.762,4.37-5.571,8.698-8.245,13.123l-8.065,13.247
		c-2.712,4.411-5.367,8.854-8.167,13.229c-2.726,4.415-5.637,8.729-8.523,13.066c-1.476,2.155-3.038,4.276-4.557,6.419
		c-0.769,1.063-1.522,2.154-2.306,3.195l-2.387,3.058l-2.387,3.058l-1.193,1.529l-0.348,0.44l-0.319,0.369l-0.638,0.739
		l-5.111,5.915l-5.118,5.921l-2.562,2.963c-0.851,0.991-1.79,1.897-2.681,2.851l-10.847,11.317
		c-1.767,1.927-3.736,3.672-5.631,5.489l-5.733,5.412l-5.744,5.418l-5.869,5.082l-5.874,5.067l-2.937,2.534l-1.469,1.267
		l-0.367,0.317l-0.49,0.393l-0.782,0.628c-4.145,3.386-8.453,6.558-12.88,9.563c-4.423,3.01-8.965,5.857-13.648,8.482
		c-4.678,2.631-9.452,5.125-14.384,7.338c-4.929,2.216-9.948,4.292-15.136,6.019c-5.182,1.739-10.489,3.227-15.93,4.379
		l-3.283,0.695l-3.245-2.218l-0.001,0c-2.85-1.698-5.646-3.47-8.436-5.249c-1.402-0.88-2.772-1.804-4.16-2.704l-4.146-2.722
		l-4.109-2.773c-1.368-0.926-2.745-1.841-4.096-2.792c-2.718-1.879-5.426-3.77-8.088-5.724l-7.102-5.233l4.133-7.977v-0.002
		c1-1.41,1.788-3.176,2.835-5.068c1.051-1.896,2.197-3.932,3.593-6.026c1.399-2.09,3.034-4.261,5.142-6.335
		c1.043-1.035,2.231-2.038,3.523-2.956l1.003-0.669c0.346-0.222,0.632-0.426,1.107-0.675c0.434-0.237,0.873-0.467,1.315-0.687
		l0.665-0.324l0.334-0.157c0.113-0.053,0.135-0.052,0.207-0.081l1.95-0.721c0.947-0.286,1.909-0.536,2.776-0.665
		c1.753-0.285,3.342-0.335,4.658-0.292c2.675,0.084,4.686,0.373,6.089,0.437c0.676,0.035,1.2,0.033,1.473,0.028
		c-0.006,0.01-0.126,0.047-0.173,0.098l-0.045,0.042c-0.036,0.026,0.095-0.027,0.134-0.036l0.366-0.117l0.366-0.117
		c0.387-0.156-0.472,0.195-0.386,0.16l0.004-0.002l0.009-0.003l0.019-0.003c0.03-0.009,0.048,0.026,0.113-0.016
		c0.2-0.042,0.612-0.296,1.075-0.667c0.466-0.364,0.998-0.865,1.555-1.459c1.122-1.173,2.3-2.659,3.664-4.337l1.114-1.353
		l0.503-0.58c0.115-0.143,0.053-0.063,0.089-0.105l0.038-0.04l0.075-0.08l0.151-0.16l0.302-0.32l2.42-2.54
		c3.371-3.257,7.098-6.131,11.033-8.495c3.954-2.317,8.03-4.145,12.049-5.698c4.026-1.563,7.991-2.827,11.825-4.123
		c3.831-1.304,7.588-2.58,11.15-4.118c0.93-0.362,1.712-0.772,2.582-1.153l1.278-0.582l1.352-0.71l1.357-0.72l0.679-0.36l0.17-0.09
		l0.085-0.045l0.042-0.022c-0.195,0.121-0.031,0.019-0.065,0.04l0.315-0.195l2.523-1.56l5.068-3.126l4.835-3.502l2.426-1.758
		c0.811-0.585,1.543-1.267,2.32-1.897l4.611-3.861c1.533-1.297,2.928-2.748,4.404-4.118c1.436-1.41,2.974-2.73,4.309-4.245
		c2.745-2.959,5.576-5.866,8.11-9.038c1.287-1.566,2.644-3.091,3.879-4.699l3.684-4.854c0.609-0.816,1.246-1.609,1.833-2.447
		l1.75-2.525l3.5-5.05L771.014,582.977z"/>
</g>
<g>
	<path d="M629.12,142.514c0,0,0.079,1.675,0.226,4.817c0.175,3.135,0.519,7.7,1.231,13.497c0.68,5.794,1.816,12.787,3.614,20.698
		c1.765,7.919,4.167,16.755,7.189,26.305c2.948,9.569,6.421,19.883,9.986,30.868c3.563,10.986,7.082,22.684,10.336,34.91
		c3.306,12.213,6.131,25,8.575,38.066c1.233,6.532,2.32,13.143,3.347,19.789c0.476,3.328,0.953,6.663,1.431,10
		c0.4,3.339,0.801,6.681,1.202,10.023c0.42,3.315,0.758,6.679,1.091,10.043c0.323,3.359,0.712,6.72,0.98,10.065
		c0.276,3.346,0.552,6.686,0.826,10.016c0.291,3.329,0.45,6.657,0.681,9.968c0.886,13.244,1.275,26.308,1.323,38.947
		c0.003,3.16,0.006,6.293,0.009,9.397c-0.07,3.103-0.139,6.176-0.207,9.217c-0.091,6.081-0.422,12.024-0.637,17.809
		c-0.269,5.784-0.691,11.403-1.081,16.835c-0.488,5.427-0.869,10.674-1.399,15.697c-1.064,10.047-2.246,19.229-3.435,27.343
		c-0.644,4.049-1.247,7.839-1.804,11.343c-0.598,3.497-1.208,6.699-1.748,9.591c-1.023,5.792-2.078,10.3-2.723,13.383
		c-0.674,3.077-1.034,4.718-1.034,4.718l-0.986-0.165c0,0,0.162-1.67,0.466-4.802c0.158-1.564,0.353-3.492,0.582-5.76
		c0.264-2.261,0.509-4.868,0.762-7.788c0.271-2.916,0.57-6.145,0.897-9.661c0.279-3.517,0.581-7.321,0.903-11.386
		c0.287-4.064,0.592-8.388,0.914-12.947c0.351-4.554,0.494-9.36,0.801-14.358c0.304-4.999,0.449-10.216,0.694-15.607
		c0.139-5.395,0.283-10.971,0.43-16.705c0.214-11.466,0.223-23.557-0.022-36.057c-0.025-1.563-0.05-3.132-0.076-4.707
		c-0.051-1.575-0.102-3.155-0.154-4.742c-0.093-3.173-0.187-6.368-0.281-9.583c-0.147-3.213-0.296-6.445-0.445-9.694
		c-0.108-3.251-0.32-6.512-0.511-9.788c-0.21-3.274-0.348-6.567-0.618-9.86c-0.253-3.294-0.508-6.599-0.762-9.909
		c-0.247-3.313-0.61-6.603-0.909-9.912c-0.307-3.303-0.62-6.612-1.024-9.951c-1.438-13.294-3.153-26.469-5.364-39.399
		c-2.202-12.92-4.797-25.558-7.671-37.716c-1.416-6.084-2.968-12.033-4.505-17.855c-1.562-5.817-3.172-11.491-4.72-17.029
		c-3.125-11.069-6.22-21.534-8.807-31.302c-2.574-9.769-4.575-18.854-5.971-26.969c-1.373-8.122-2.086-15.277-2.432-21.17
		c-0.332-5.889-0.327-10.543-0.285-13.691c0.077-3.144,0.117-4.82,0.117-4.82L629.12,142.514z"/>
</g>
<g>
	<path d="M292.159,298.939c0,0,0.28,9.724,0.77,26.741c0.199,8.509,0.441,18.842,0.719,30.695
		c0.209,11.857,0.403,25.209,0.915,39.748c0.525,14.534,1.322,30.247,3.125,46.728c0.368,4.131,0.997,8.28,1.546,12.491
		c0.529,4.187,1.204,8.506,1.857,12.807c1.303,8.621,2.825,17.326,5.021,25.92c1.122,4.286,2.417,8.537,3.953,12.702
		c0.375,1.045,0.821,2.058,1.228,3.091c0.407,1.034,0.83,2.06,1.315,3.055l1.404,3.015l1.557,2.932
		c2.164,3.854,4.535,7.614,7.383,11l1.03,1.3c-0.005-0.003,0.192,0.237,0.022,0.034l0.15,0.165l0.3,0.329l0.6,0.659
		c0.798,0.865,1.607,1.791,2.398,2.608c1.555,1.458,3.029,2.957,4.807,4.36c6.805,5.743,14.945,9.959,23.604,13.381
		c8.697,3.395,17.934,6.031,27.299,8.88l6.94,2.113c2.268,0.669,4.645,1.338,7.023,2.077c4.772,1.498,9.708,3.183,14.515,5.79
		c2.395,1.306,4.746,2.842,6.938,4.666l0.81,0.703l0.404,0.353l0.202,0.177l0.293,0.282l1.286,1.274
		c0.912,0.969,2.018,2.165,2.802,3.182c3.43,4.229,5.998,8.817,8.198,13.377c2.19,4.573,3.977,9.161,5.682,13.621l0.634,1.663
		l0.207,0.551l0.147,0.419l0.294,0.837l1.174,3.343c0.776,2.233,1.574,4.428,2.325,6.675c0.705,2.308,1.408,4.61,2.108,6.904
		c0.706,2.297,1.406,4.587,2.003,6.824c1.25,4.497,2.505,8.971,3.637,13.37c0.581,2.203,1.159,4.397,1.735,6.581
		c0.588,2.162,1.174,4.315,1.756,6.457c1.132,4.311,2.403,8.463,3.608,12.611c0.312,1.031,0.587,2.079,0.927,3.087
		c0.342,1.007,0.683,2.012,1.023,3.014c0.679,2.004,1.354,3.997,2.025,5.978c0.315,1.002,0.707,1.957,1.093,2.912
		c0.383,0.957,0.765,1.911,1.145,2.862c0.76,1.904,1.515,3.796,2.265,5.675c0.425,0.891,0.848,1.779,1.27,2.664l0.67,1.401
		c0.224,0.442,0.45,0.805,0.673,1.211c0.444,0.794,0.887,1.586,1.327,2.375c0.506,0.783,1.01,1.563,1.513,2.34
		c2.067,3.064,4.333,5.904,6.944,8.33c2.578,2.455,5.342,4.664,8.335,6.533c0.73,0.488,1.47,0.961,2.247,1.383
		c0.765,0.438,1.527,0.874,2.285,1.307c1.583,0.786,3.1,1.634,4.712,2.336c0.794,0.369,1.584,0.735,2.37,1.1
		c0.805,0.342,1.605,0.683,2.401,1.021c1.578,0.697,3.211,1.295,4.791,1.933c1.609,0.603,3.199,1.2,4.771,1.789
		c1.566,0.569,3.112,1.131,4.639,1.686c3.227,1.117,6.021,1.966,9.079,2.811c3.035,0.83,5.982,1.637,8.839,2.418
		c5.772,1.572,11.206,3.344,16.086,5.478c4.873,2.134,9.193,4.668,12.615,7.592c3.432,2.96,5.799,6.203,7.622,9.197
		c0.386,0.739,0.772,1.411,1.117,2.129c0.335,0.706,0.656,1.383,0.964,2.03c0.595,1.274,1.113,2.414,1.643,3.386
		c0.499,0.998,1.045,1.792,1.489,2.511c0.519,0.649,0.912,1.247,1.298,1.664c0.785,0.833,1.19,1.262,1.19,1.262l-0.634,0.773
		c0,0-0.489-0.393-1.438-1.155c-0.469-0.391-0.981-0.95-1.623-1.592c-0.562-0.697-1.259-1.493-1.907-2.467
		c-0.685-0.956-1.361-2.066-2.104-3.252c-0.741-1.192-1.516-2.404-2.469-3.793c-1.894-2.456-4.343-5.184-7.651-7.474
		c-3.332-2.265-7.365-4.267-12.051-5.833c-4.677-1.597-9.965-2.768-15.709-3.968c-2.909-0.587-5.91-1.194-9.001-1.818
		c-3.064-0.621-6.532-1.431-9.654-2.286c-1.633-0.474-3.287-0.954-4.962-1.44c-1.651-0.52-3.322-1.046-5.012-1.578
		c-1.691-0.578-3.406-1.104-5.133-1.755c-0.865-0.315-1.734-0.631-2.609-0.949c-0.871-0.348-1.747-0.698-2.627-1.05
		c-1.765-0.68-3.514-1.546-5.298-2.343c-0.879-0.451-1.762-0.904-2.649-1.36c-0.894-0.44-1.77-0.942-2.643-1.469
		c-3.534-1.999-6.975-4.472-10.175-7.339c-3.247-2.827-6.133-6.172-8.722-9.745c-0.63-0.907-1.262-1.818-1.896-2.732
		c-0.582-0.982-1.166-1.968-1.752-2.958c-0.283-0.491-0.601-1.006-0.855-1.48l-0.705-1.384c-0.494-0.977-0.99-1.957-1.487-2.94
		c-7.374-15.693-12.167-33.113-16.877-50.688c-1.187-4.375-2.383-8.787-3.588-13.231c-0.586-2.239-1.237-4.395-1.89-6.556
		c-0.648-2.168-1.297-4.343-1.949-6.525c-0.725-2.204-1.524-4.436-2.285-6.663l-1.158-3.349l-0.29-0.839l-0.145-0.419
		c0.073,0.201-0.025-0.064-0.028-0.073l-0.078-0.208l-0.625-1.662c-1.659-4.406-3.325-8.715-5.253-12.786
		c-1.93-4.059-4.103-7.915-6.742-11.186c-0.689-0.892-1.23-1.461-1.953-2.264l-1.28-1.28l-1.006-0.884
		c-1.517-1.273-3.222-2.412-5.072-3.434c-3.706-2.044-7.985-3.574-12.464-4.995l-6.932-2.135l-6.98-2.234
		c-9.191-2.946-18.646-5.771-27.953-9.553c-9.266-3.81-18.448-8.685-26.214-15.423c-1.96-1.596-3.836-3.509-5.704-5.366
		c-0.85-0.908-1.595-1.788-2.396-2.682l-0.591-0.667l-0.295-0.334l-0.148-0.167c-0.273-0.311-0.159-0.194-0.258-0.312l-1.161-1.505
		c-3.163-3.963-5.757-8.284-8.073-12.658c-0.554-1.106-1.106-2.211-1.658-3.314c-0.493-1.125-0.985-2.247-1.476-3.368
		c-0.508-1.115-0.946-2.25-1.365-3.388c-0.419-1.138-0.878-2.262-1.259-3.404c-1.562-4.56-2.837-9.143-3.916-13.703
		c-2.103-9.127-3.451-18.146-4.566-26.899c-0.575-4.386-1.062-8.668-1.481-13.003c-0.42-4.308-0.92-8.557-1.158-12.762
		c-0.661-8.401-1.005-16.577-1.271-24.478c-0.085-3.949-0.168-7.832-0.25-11.643c0-3.807-0.001-7.544-0.001-11.203
		c0.108-14.628,0.428-28.017,0.773-39.859c0.322-11.848,0.602-22.176,0.833-30.683c0.545-17.014,0.856-26.736,0.856-26.736
		L292.159,298.939z"/>
</g>
<g>
	<path d="M365.374,602.384c0,0,0.239,0.019,0.701,0.056c0.463,0.034,1.149,0.091,2.039,0.185c1.77,0.176,4.457,0.527,7.805,1.302
		c1.664,0.457,3.539,0.939,5.529,1.759c1.017,0.341,2.015,0.906,3.094,1.398c0.546,0.234,1.051,0.591,1.589,0.909
		c0.53,0.333,1.084,0.653,1.624,1.023c2.123,1.538,4.291,3.474,6.093,5.958c0.49,0.595,0.845,1.272,1.279,1.927
		c0.204,0.335,0.41,0.672,0.617,1.011c0.198,0.343,0.349,0.701,0.526,1.056c0.337,0.714,0.7,1.439,1.018,2.182
		c0.273,0.75,0.549,1.509,0.827,2.275c1.016,3.081,1.669,6.351,2.026,9.654c0.044,0.415,0.087,0.831,0.131,1.249l0.062,0.63
		l0.031,0.316l0.008,0.079l0.007,0.17l0.008,0.145c0.045,0.775,0.09,1.557,0.135,2.345c0.06,1.632,0.11,3.466,0.108,5.093
		c-0.017,3.355-0.112,6.731-0.202,10.104c-0.117,3.371-0.209,6.768-0.187,10.121c-0.001,3.35,0.147,6.678,0.535,9.871
		c0.169,1.605,0.446,3.149,0.766,4.66c0.198,0.729,0.366,1.48,0.574,2.199l0.361,1.04l0.177,0.522l0.087,0.262l0.043,0.131
		l0.022,0.065c-0.196-0.483-0.035-0.088-0.07-0.175l0.544,1.284c0.087,0.199,0.189,0.463,0.265,0.608l0.21,0.378l0.409,0.783
		l0.562,0.92c0.773,1.223,1.667,2.429,2.712,3.594c2.053,2.34,4.578,4.556,7.313,6.711c1.379,1.072,2.807,2.128,4.295,3.175
		c1.498,1.04,2.994,2.078,4.488,3.115c2.732,1.908,6.163,3.713,9.747,6.533c1.778,1.408,3.573,3.131,5.068,5.226
		c0.362,0.534,0.715,1.076,1.056,1.621c0.312,0.57,0.622,1.139,0.911,1.716l0.382,0.887l0.186,0.445l0.092,0.222l0.046,0.111
		c0.07,0.192-0.093-0.272,0.169,0.458l0.385,1.313c0.164,0.651,0.332,1.48,0.46,2.214c0.111,0.718,0.13,1.257,0.19,1.892
		c0.063,1.194,0.058,2.35-0.017,3.414c-0.147,2.15-0.455,4.068-0.741,5.835c-0.599,3.481-0.994,6.475-0.712,8.474l0.137,0.696
		l0.014,0.088c-0.035-0.085,0.089,0.253-0.078-0.179l0.027,0.075l0.106,0.299l0.212,0.596l0.106,0.297l0.052,0.145l0.036,0.071
		l0.134,0.289l0.119,0.3c0.054,0.112,0.136,0.242,0.201,0.363c0.533,0.997,1.22,1.925,2.083,2.784
		c0.855,0.862,1.856,1.656,2.949,2.38c1.105,0.715,2.306,1.349,3.536,1.935c2.484,1.161,5.108,2.099,7.719,2.882
		c5.219,1.6,10.305,2.744,14.815,4.024c2.261,0.625,4.382,1.303,6.336,2.027c0.488,0.178,0.966,0.378,1.431,0.561l0.174,0.071
		c0.174,0.062,0.071,0.028,0.12,0.047l0.04,0.019l0.08,0.039l0.318,0.154c0.211,0.102,0.419,0.204,0.625,0.304
		c0.207,0.101,0.412,0.202,0.614,0.301c0.216,0.121,0.429,0.241,0.639,0.359c0.414,0.237,0.836,0.465,1.204,0.694
		c1.459,0.909,2.666,1.8,3.712,2.504c1.052,0.712,1.94,1.3,2.696,1.697c0.742,0.443,1.34,0.705,1.746,0.886
		c0.407,0.186,0.617,0.282,0.617,0.282l-0.248,0.969c0,0-0.24-0.045-0.705-0.133c-0.467-0.089-1.175-0.2-2.047-0.489
		c-1.769-0.502-4.25-1.636-7.222-2.801c-2.841-1.125-6.656-1.714-11.169-2.205c-4.511-0.511-9.702-0.886-15.518-1.828
		c-2.904-0.486-5.974-1.135-9.186-2.169c-3.189-1.085-6.583-2.569-9.779-5.117c-1.598-1.253-3.074-2.852-4.314-4.666
		c-0.157-0.231-0.312-0.444-0.468-0.692l-0.461-0.811l-0.448-0.825l-0.11-0.208l-0.068-0.146l-0.133-0.286l-0.267-0.574
		l-0.134-0.287l-0.034-0.072l-0.124-0.331l-0.074-0.217c-0.193-0.577-0.395-1.169-0.556-1.753c-0.605-2.344-0.699-4.554-0.668-6.586
		c0.036-2.034,0.208-3.921,0.358-5.675c0.149-1.742,0.265-3.371,0.247-4.812c0.008-0.73-0.043-1.381-0.112-1.989
		c-0.052-0.262-0.085-0.63-0.134-0.805c-0.062-0.153-0.055-0.22-0.106-0.452l-0.464-1.287c0.245,0.676,0.054,0.162,0.102,0.301
		l-0.024-0.045l-0.048-0.09l-0.094-0.181l-0.18-0.365l-0.43-0.685l-0.499-0.656c-0.717-0.854-1.648-1.684-2.814-2.535
		c-2.325-1.707-5.603-3.319-9.16-5.523l-1.267-0.804l-1.196-0.778l-2.424-1.602c-1.623-1.081-3.263-2.225-4.895-3.427
		c-1.633-1.204-3.256-2.493-4.85-3.87c-1.573-1.416-3.133-2.885-4.592-4.546c-1.475-1.624-2.854-3.418-4.095-5.345l-0.907-1.468
		c-0.303-0.529-0.606-1.126-0.9-1.691l-0.437-0.861c-0.132-0.271-0.196-0.443-0.298-0.669l-0.555-1.279l-0.138-0.335l-0.034-0.1
		l-0.067-0.199l-0.133-0.399l-0.264-0.797l-0.518-1.594c-0.296-1.059-0.529-2.112-0.786-3.165c-0.424-2.092-0.755-4.164-0.944-6.184
		c-0.372-4.05-0.351-7.927-0.218-11.65c0.17-3.721,0.526-7.27,0.852-10.694c0.365-3.422,0.767-6.691,1.053-9.815
		c0.177-1.61,0.297-2.976,0.417-4.493c0.044-0.788,0.087-1.57,0.13-2.345l-0.059-0.145c0.001-0.109-0.063,0.067-0.063,0.025v-0.066
		l0.07-0.263l0.04-0.525l0.038-1.046c0.081-1.411-0.013-2.721-0.047-4.045c-0.011-0.665-0.125-1.27-0.18-1.904
		c-0.077-0.622-0.103-1.264-0.239-1.84c-0.328-2.435-1.109-4.516-1.953-6.48c-0.248-0.472-0.491-0.938-0.733-1.397
		c-0.24-0.467-0.574-0.858-0.849-1.292c-0.529-0.885-1.26-1.598-1.878-2.383c-2.766-2.906-6.052-4.962-8.838-6.52
		c-1.427-0.732-2.701-1.446-3.851-1.958c-1.139-0.552-2.113-1.038-2.947-1.379c-0.823-0.351-1.449-0.634-1.871-0.83
		c-0.422-0.193-0.64-0.292-0.64-0.292L365.374,602.384z"/>
</g>
<g>
	<path d="M365.415,717.569c0,0,0.139,0.268,0.338,0.772c0.104,0.25,0.232,0.558,0.382,0.921c0.165,0.297,0.354,0.638,0.566,1.02
		c0.207,0.361,0.503,0.752,0.754,1.15c0.153,0.178,0.313,0.363,0.479,0.555l0.237,0.28l0.289,0.245
		c0.716,0.689,1.585,1.192,2.642,1.612c1.07,0.403,2.361,0.743,3.893,1.008c1.526,0.271,3.263,0.505,5.158,0.733
		c1.895,0.236,3.937,0.538,6.12,0.891c2.191,0.353,4.488,0.804,7.011,1.697c1.239,0.428,2.566,1.081,3.868,1.942
		c1.307,0.846,2.616,2.163,3.5,3.713c1.436,2.743,1.884,5.206,2.048,7.695c0.124,2.466-0.236,4.705-0.605,6.531
		c-0.368,1.837-0.661,3.257-0.58,4.026c0.024,0.401,0.117,0.749,0.377,1.139c0.272,0.379,0.637,0.776,1.095,1.096
		c0.885,0.677,1.883,1.181,2.703,1.584c0.833,0.401,1.515,0.707,1.988,0.892c0.471,0.207,0.722,0.318,0.722,0.318l-0.147,0.989
		c0,0-0.28,0.022-0.806,0.064c-0.526,0.034-1.299,0.059-2.306,0.044c-1.007-0.05-2.238-0.134-3.737-0.567
		c-0.744-0.211-1.567-0.575-2.425-1.138c-0.852-0.576-1.698-1.519-2.24-2.634c-0.556-1.115-0.771-2.295-0.9-3.345
		c-0.13-1.061-0.146-2.041-0.183-2.973c-0.079-1.86-0.157-3.547-0.55-5.099c-0.341-1.508-1.049-3.151-1.723-4.092
		c-0.256-0.227-0.492-0.47-1.027-0.734c-0.526-0.257-1.168-0.523-1.988-0.736c-1.57-0.482-3.547-0.74-5.541-1.05
		c-2.012-0.291-4.114-0.518-6.206-0.939c-2.091-0.427-4.193-0.969-6.206-1.803c-2.001-0.834-3.949-1.942-5.505-3.439
		c-1.582-1.461-2.646-3.316-3.121-4.96c-0.06-0.205-0.119-0.407-0.176-0.606c-0.033-0.202-0.065-0.401-0.097-0.596
		c-0.058-0.387-0.121-0.754-0.142-1.105c0.009-0.711-0.01-1.323,0.078-1.897c0.082-0.575,0.19-1.068,0.279-1.481
		c0.127-0.379,0.263-0.683,0.359-0.939c0.192-0.507,0.328-0.778,0.328-0.778L365.415,717.569z"/>
</g>
</svg>
